<svg width="24" height="12" viewBox="0 0 24 12" fill="none" xmlns="http://www.w3.org/2000/svg">
<path d="M14.5385 11H17.9231C19.2696 11 20.5609 10.4732 21.513 9.53553C22.4651 8.59785 23 7.32608 23 6C23 4.67392 22.4651 3.40215 21.513 2.46447C20.5609 1.52678 19.2696 1 17.9231 1H14.5385M9.46154 1H6.07692C4.73044 1 3.4391 1.52678 2.487 2.46447C1.53489 3.40215 1 4.67392 1 6C1 7.32608 1.53489 8.59785 2.487 9.53553C3.4391 10.4732 4.73044 11 6.07692 11H9.46154M16.9029 6H6.99131" stroke="#DA9FFF" stroke-width="2" stroke-linecap="round" stroke-linejoin="round"/>
</svg>
